<svg width="48" height="48" viewBox="0 0 48 48" fill="none" xmlns="http://www.w3.org/2000/svg">
<path d="M34.057 28.2525L19.7545 13.935C19.6152 13.7956 19.4498 13.6849 19.2677 13.6095C19.0856 13.534 18.8904 13.4951 18.6933 13.4951C18.4962 13.4951 18.301 13.534 18.1189 13.6095C17.9368 13.6849 17.7714 13.7956 17.632 13.935L13.942 17.6325C13.6627 17.9136 13.5059 18.2938 13.5059 18.69C13.5059 19.0863 13.6627 19.4665 13.942 19.7475L28.2445 34.065C28.3847 34.2041 28.5509 34.3141 28.7337 34.3887C28.9164 34.4634 29.1121 34.5012 29.3095 34.5C29.7057 34.5004 30.0858 34.344 30.367 34.065L34.057 30.3675C34.3364 30.0865 34.4932 29.7063 34.4932 29.31C34.4932 28.9138 34.3364 28.5336 34.057 28.2525ZM29.3095 33L14.9995 18.69L18.6895 15L21.532 17.8425L19.8445 19.5L20.902 20.5575L22.5895 18.9L25.687 21.9975L23.9995 23.685L25.0645 24.75L26.752 23.0625L29.8495 26.16L28.162 27.8475L29.2495 28.905L30.937 27.2175L32.9995 29.31L29.3095 33Z" fill="white"/>
<circle cx="24" cy="24" r="23.5" stroke="white" stroke-opacity="0.5"/>
</svg>
