<svg width="26" height="26" viewBox="0 0 26 26" fill="none" xmlns="http://www.w3.org/2000/svg">
<path d="M23.5623 22.4134L17.4263 16.2774C18.9008 14.5072 19.6361 12.2367 19.4792 9.93818C19.3223 7.63967 18.2853 5.49014 16.5839 3.93674C14.8825 2.38334 12.6477 1.54568 10.3445 1.59802C8.04121 1.65035 5.84679 2.58865 4.21772 4.21772C2.58865 5.84679 1.65035 8.04121 1.59802 10.3445C1.54568 12.6477 2.38334 14.8825 3.93674 16.5839C5.49014 18.2853 7.63967 19.3223 9.93818 19.4792C12.2367 19.6361 14.5072 18.9008 16.2774 17.4263L22.4134 23.5623L23.5623 22.4134ZM3.24976 10.5623C3.24976 9.11598 3.67863 7.70219 4.48214 6.49965C5.28564 5.29712 6.4277 4.35985 7.76389 3.80639C9.10007 3.25292 10.5704 3.10811 11.9889 3.39027C13.4073 3.67242 14.7103 4.36887 15.733 5.39154C16.7556 6.41421 17.4521 7.71717 17.7343 9.13566C18.0164 10.5541 17.8716 12.0244 17.3181 13.3606C16.7647 14.6968 15.8274 15.8389 14.6249 16.6424C13.4223 17.4459 12.0085 17.8748 10.5623 17.8748C8.62352 17.8726 6.76481 17.1015 5.39391 15.7306C4.02302 14.3597 3.25191 12.501 3.24976 10.5623Z" fill="#1C1C1C"/>
</svg>
