<svg width="55" height="55" viewBox="0 0 55 55" fill="none" xmlns="http://www.w3.org/2000/svg">
<circle cx="27.5" cy="27.5" r="27.5" fill="#03A543"/>
<path d="M15.98 23.44L14.84 22.82C15.2933 21.86 16.04 21.12 17.08 20.6C18.12 20.08 19.2133 19.82 20.36 19.82C21.5333 19.82 22.5733 20.1333 23.48 20.76C24.3867 21.3733 24.84 22.2333 24.84 23.34C24.84 24.1267 24.64 24.8067 24.24 25.38C23.84 25.9533 23.2733 26.3667 22.54 26.62C23.7 26.8333 24.5333 27.4133 25.04 28.36C25.2667 28.84 25.38 29.3533 25.38 29.9C25.38 31.3667 24.8733 32.4467 23.86 33.14C22.8467 33.8333 21.58 34.18 20.06 34.18C18.9133 34.18 17.7733 33.88 16.64 33.28C15.52 32.68 14.7733 31.8733 14.4 30.86L15.62 30.34C16.1 31.14 16.7333 31.76 17.52 32.2C18.3067 32.6267 19.1733 32.84 20.12 32.84C20.76 32.84 21.3533 32.76 21.9 32.6C22.46 32.44 22.9467 32.1467 23.36 31.72C23.7733 31.28 23.98 30.74 23.98 30.1C23.98 28.3533 22.6933 27.48 20.12 27.48H18.22V26.18H19.76C20.6267 26.18 21.4533 25.9467 22.24 25.48C23.04 25 23.44 24.36 23.44 23.56C23.44 22.76 23.1133 22.16 22.46 21.76C21.82 21.3467 21.08 21.14 20.24 21.14C18.36 21.14 16.94 21.9067 15.98 23.44ZM31.7103 34H27.6103V20H31.8903C34.2236 20 36.077 20.58 37.4503 21.74C38.8236 22.8867 39.5103 24.5733 39.5103 26.8C39.5103 29.12 38.7836 30.9 37.3303 32.14C35.8903 33.38 34.017 34 31.7103 34ZM31.8503 21.32H29.0303V32.68H31.7903C33.7503 32.68 35.2836 32.1733 36.3903 31.16C37.497 30.1467 38.0503 28.6933 38.0503 26.8C38.0503 24.92 37.4836 23.54 36.3503 22.66C35.2303 21.7667 33.7303 21.32 31.8503 21.32Z" fill="white"/>
</svg>
